<?xml version="1.0" encoding="iso-8859-1"?><svg width="64" height="64" viewBox="0 0 64 64" xmlns="http://www.w3.org/2000/svg" xmlns:xlink="http://www.w3.org/1999/xlink"><svg width="32" height="32" viewBox="0 0 508 508" id="test-clock" xmlns="http://www.w3.org/2000/svg"><circle cx="254" cy="254" r="254" fill="#fd8469"/><circle cx="254" cy="254" r="204.8" fill="#54c0eb"/><circle cx="254" cy="254" r="168.8" fill="#fff"/><g fill="#324a5e"><path d="M234 102h12v29.6h-6.4v-24H234V102zM264.8 113.6c.8-1.2 1.2-2 1.2-3.2 0-.8-.4-2-.8-2.4-.8-.8-1.6-1.2-2.4-1.2-2 0-3.6 1.2-5.2 4l-5.2-3.2c1.2-2 2.8-3.6 4.4-4.8 1.6-1.2 3.6-1.6 6.4-1.6 2.4 0 4.8.8 6.8 2.4s2.8 4 2.8 6.8c0 1.6-.4 3.2-1.2 4.4-.8 1.6-2.4 3.2-4.4 5.2l-5.2 5.6h11.6v6h-20.8v-4.8l8.8-8.8c1.2-2 2.4-3.6 3.2-4.4zM315.6 122h12v29.6h-6.4v-24h-5.6V122zM373.2 183.6c.8-1.2 1.2-2 1.2-3.2 0-.8-.4-2-.8-2.4-.8-.8-1.6-1.2-2.4-1.2-2 0-3.6 1.2-5.2 4l-5.6-2.8c1.2-2 2.8-3.6 4.4-4.8s3.6-1.6 6.4-1.6c2.4 0 4.8.8 6.8 2.4 2 1.6 2.8 4 2.8 6.8 0 1.6-.4 3.2-1.2 4.4-.8 1.6-2.4 3.2-4.4 5.2l-5.2 5.2h11.6v6h-20.8v-4.8l8.8-8.8c1.6-2 2.8-3.6 3.6-4.4zM380 244.8v-5.6h18.4v4.4l-6 6.8c2.4.4 4.4 1.2 5.6 3.2 1.2 1.6 2 3.6 2 5.6 0 3.2-1.2 5.6-3.2 7.2s-4.8 2.8-8 2.8-6.8-1.2-10-3.6l2.8-5.2c2.8 2 5.2 2.8 7.6 2.8 1.2 0 2.4-.4 3.2-.8.8-.8 1.2-1.6 1.2-2.8 0-1.2-.4-2.4-1.6-2.8-.8-.8-2.4-1.2-4-1.2-.8 0-2.4.4-4 .8v-4.8l5.6-6.8H380zM372 323.6v-5.2h6.4v5.2h3.6v5.6h-3.2v7.2h-6.4v-7.2h-12V324l10.4-17.6h7.2l-10 16.8h4v.4zM330.4 356v5.6h-11.6v4.8c.8-.4 2-.4 3.2-.4 2.8 0 5.2.8 7.6 2.4 2 1.6 3.2 4 3.2 6.8s-1.2 5.2-3.2 7.2-4.8 2.8-8 2.8c-4 0-7.2-1.6-10-4.4l3.6-4.8c.4.4.4.4 1.2.8.4.4 1.2.8 2.4 1.6s2.4.8 3.6.8 2-.4 3.2-1.2c.8-.8 1.2-1.6 1.2-3.2s-.4-2.4-1.6-3.2c-.8-.8-2-1.2-3.6-1.2s-3.2.4-5.2 1.6l-2.8-2.8v-14.4h16.8v1.2zM255.6 379.2c-2 0-3.2.8-4.4 2s-1.6 2.8-2 5.2c2-1.2 4-1.6 6-1.6 2.8 0 5.2.8 6.8 2.8 2 2 2.8 4.4 2.8 7.2 0 3.2-.8 5.6-2.8 7.2-2 2-4.4 2.8-7.6 2.8-2 0-4-.4-5.6-1.2s-2.8-2-3.6-3.2c-1.6-2.8-2.4-6.4-2.4-10.4 0-2.8.4-5.2.8-7.2.8-2 1.6-3.6 2.8-4.8 2.4-2.4 5.2-3.6 8.4-3.6 1.2 0 2.8.4 4 .8s2.4.8 2.8 1.2c.8.4 1.6.8 2.4 1.6l-2.8 4-.8-.8c-.4-.4-.8-.8-2-1.2-.8-.4-2-.8-2.8-.8zm-.8 10.8c-1.2 0-2.4.4-3.2 1.2-.8.8-1.2 1.6-1.2 3.2 0 1.2.4 2.4 1.2 3.2.8.8 2 1.2 3.2 1.2 1.2 0 2.4-.4 3.2-1.2.8-.8 1.2-2 1.2-3.2s-.4-2.4-1.2-3.2c-.8-.8-2-1.2-3.2-1.2zM175.6 365.6V356h21.6v5.2l-12 24.8H178l11.6-24H182v4h-6.4v-.4zM129.6 308.4c2-1.6 4.4-2.4 7.2-2.4s5.6.8 7.2 2.4c2 1.6 2.8 3.6 2.8 5.6 0 2.4-.8 4.4-2.8 6 2.4 2 3.6 4.4 3.6 7.6 0 2.8-1.2 4.8-3.2 6.4s-4.8 2.8-8.4 2.8c-3.2 0-6-.8-8.4-2.8-2-1.6-3.2-4-3.2-6.4 0-3.2 1.2-5.6 3.6-7.6-1.6-1.6-2.8-3.6-2.8-6 1.6-2 2.4-4 4.4-5.6zm4 22c.8.8 2 1.2 3.2 1.2s2.4-.4 3.2-1.2c.8-.8 1.6-1.6 1.6-2.8 0-1.2-.4-2.4-1.6-2.8-.8-.8-2-1.2-3.2-1.2s-2.4.4-3.2 1.2c-.8.8-1.6 1.6-1.6 2.8.4 1.2.8 2 1.6 2.8zm.4-13.2c.8.8 1.6 1.2 2.8 1.2s2-.4 2.8-1.2c.8-.8 1.2-1.6 1.2-2.4 0-1.2-.4-2-1.2-2.4-.8-.8-1.6-1.2-2.8-1.2s-2 .4-2.8 1.2c-.8.8-1.2 1.6-1.2 2.4 0 1.2.4 2 1.2 2.4zM117.2 263.6c2 0 3.2-.8 4.4-2 1.2-1.2 1.6-2.8 2-5.2-2 1.2-3.6 2-6 2-2.8 0-5.2-.8-6.8-2.8-2-2-2.8-4.4-2.8-7.2 0-3.2 1.2-5.6 3.2-7.2 2-2 4.4-2.8 7.6-2.8 2 0 4 .4 5.6 1.2s2.8 2 3.6 3.2c1.6 2.8 2.4 6.4 2.4 10.4 0 2.8-.4 5.2-1.2 7.2s-1.6 3.6-2.8 4.8c-2.4 2.4-5.2 3.6-8.4 3.6-1.2 0-2.8-.4-4-.8s-2.4-.8-2.8-1.2c-.8-.4-1.6-.8-2.4-1.6l3.2-4.8.8.8c.4.4.8.8 2 1.2.8 1.2 1.6 1.2 2.4 1.2zm1.2-10.8c1.2 0 2.4-.4 3.2-1.2.8-.8 1.2-1.6 1.2-3.2 0-1.2-.4-2.4-1.2-3.2-.8-.8-2-1.2-3.2-1.2s-2.4.4-3.2 1.2c-.8.8-1.2 2-1.2 3.2s.4 2.4 1.2 3.2c.8.8 1.6 1.2 3.2 1.2zM115.6 171.6h12v29.6h-6.4v-24h-5.6v-5.6zM146 202c-4 0-7.2-1.2-9.2-4s-3.2-6.4-3.2-11.2 1.2-8.4 3.2-11.2 5.2-4 9.2-4 7.2 1.2 9.2 4 3.2 6.4 3.2 11.2-1.2 8.4-3.2 11.2c-2 2.4-4.8 4-9.2 4zm-4.4-22.8c-.8 2-1.6 4.4-1.6 7.2s.4 5.2 1.6 7.2c.8 2 2.4 2.8 4.4 2.8s3.6-.8 4.4-2.8c.8-2 1.2-4.4 1.2-7.2s-.4-5.2-1.2-7.2-2.4-2.8-4.4-2.8-3.2 1.2-4.4 2.8zM172 122h12v29.6h-6.4v-24H172V122zM189.2 122h12v29.6h-6.4v-24h-5.6V122z"/></g><path d="M180.8 328.8c-.4 0-.8 0-1.2-.4-.8-.8-.8-2 0-2.4l73.2-73.2c.8-.8 2-.8 2.4 0 .8.8.8 2 0 2.4L182 328.4c-.4.4-.8.4-1.2.4z" fill="#ff7058"/><path d="M254 257.6c-2 0-3.6-1.6-3.6-3.6v-98c0-2 1.6-3.6 3.6-3.6s3.6 1.6 3.6 3.6v98c0 2-1.6 3.6-3.6 3.6z" fill="#2b3b4e"/><path d="M336 258.4l-82-.8c-2 0-3.6-1.6-3.6-3.6s1.6-3.6 3.6-3.6l82 1.2c2 0 3.6 1.6 3.6 3.6 0 1.6-1.6 3.2-3.6 3.2z" fill="#2b3b4e"/><circle cx="254" cy="254" r="8.8" fill="#324a5e"/></svg><svg width="32" height="32" viewBox="0 0 508 508" id="test-laptop" x="32" xmlns="http://www.w3.org/2000/svg"><circle cx="254" cy="254" r="254" fill="#324a5e"/><path d="M378.8 289.6H131.6c-8.8 0-16-7.2-16-16V114.4c0-8.8 7.2-16 16-16h247.2c8.8 0 16 7.2 16 16v158.8c0 9.2-7.2 16.4-16 16.4z" fill="#fff"/><path fill="#54c0eb" d="M131.6 117.6h247.6v152.8H131.6z"/><path d="M416.8 409.6H91.2c-6.4 0-11.2-6.4-9.2-12.4l31.6-100.8c1.2-4 5.2-6.8 9.2-6.8h262.8c4.4 0 8 2.8 9.2 6.8l31.6 100.8c1.6 6-2.8 12.4-9.6 12.4z" fill="#e6e9ee"/><g fill="#acb3ba"><path d="M404.4 358.8l-18-57.2c-.8-3.2-3.6-5.2-6.8-5.2H128c-3.2 0-6 2-6.8 5.2l-18 57.2c-.8 2.8 1.2 5.2 4 5.2h293.2c3.2.4 5.2-2.4 4-5.2zM289.2 397.6h-70.4c-1.2 0-2.4-1.2-2-2.8l4.4-19.2c.4-.8 1.2-1.6 2-1.6h61.6c1.2 0 2 .8 2 1.6l4.4 19.2c.4 1.6-.4 2.8-2 2.8z"/></g></svg><svg width="32" height="32" viewBox="0 0 508 508" id="test-mouse" y="32" xmlns="http://www.w3.org/2000/svg"><circle cx="254" cy="254" r="254" fill="#324a5e"/><path d="M339.6 116.8v2.4c0 12-10 22-22 22h-46c-7.6 0-14 6.4-14 14v42.4h-8v-42.8c0-12 9.6-21.6 21.6-21.6H318c7.6 0 14-6.4 14-14v-2.4c0-7.6-6.4-14-14-14H202.8c-12 0-22-10-22-22s9.6-22 22-22h46.8c9.6 0 17.6-8 17.6-17.6V0c2.8 0 5.2.4 8 .4v41.2c0 14-11.6 25.6-25.6 25.6h-46.8c-7.6 0-14 6.4-14 14s6.4 14 14 14H318c12-.4 21.6 9.6 21.6 21.6z" fill="#4cdbc4"/><path d="M254.4 182.8h-1.2c-47.2 0-85.6 38.4-85.6 85.6v110c0 47.2 38.4 85.6 85.6 85.6h1.2c47.2 0 85.6-38.4 85.6-85.6v-110c0-47.2-38.4-85.6-85.6-85.6z" fill="#fff"/><path d="M340 268.4V294H168v-25.6c0-46 36.4-83.6 82-85.2v51.6h8v-52c45.6 2 82 39.6 82 85.6z" fill="#e6e9ee"/><path d="M254 278.4c-6.8 0-12.4-5.6-12.4-12.4v-32.8c0-6.8 5.6-12.4 12.4-12.4 6.8 0 12.4 5.6 12.4 12.4V266c0 6.8-5.6 12.4-12.4 12.4z" fill="#324a5e"/></svg></svg>